<?xml version="1.0" encoding="UTF-8"?>
<svg id="_レイヤー_1" data-name="レイヤー_1" xmlns="http://www.w3.org/2000/svg" version="1.1" viewBox="0 0 258.75 258.75">
  <!-- Generator: Adobe Illustrator 29.4.0, SVG Export Plug-In . SVG Version: 2.1.0 Build 152)  -->
  <defs>
    <style>
      .st0 {
        fill: #fff;
      }
    </style>
  </defs>
  <path d="M235.3,115.65c4.59-5.32,5.72-10.44,5.53-17.34-.45-16.47-3.46-42.5-6.1-58.95-4.08-25.46-37.74-24.27-39.57-.87-.29,3.76-.45,16.92,2.57,19.17,1.52,1.13,3.6.05,4.89,1.84.65.9,1.41,6.63,1.53,8.19.47,6.08.76,18.89.06,24.72-.1.83-.03,1.63-.8,2.19l-28.08,16.05c-23.28-1.58-49.61,2.24-72.53.07-4.85-.46-11.36-4.91-15.8-7.38-7.62-4.23-20.61-11.15-27.11-16.26-.86-.68-1.76-1.29-2.19-2.36,2.39-10.03,2.61-25.68,6.79-34.81,2.93-6.4,10.17-7,11.6-16.81,2.54-17.38-10.73-31.25-28.2-25.96-12.47,3.78-13.84,14.86-16.12,25.76-3.36,16.07-8.53,38.45-9.99,54.33-.84,9.1.17,16.99,6.61,23.87,12.47,13.3,36.35,24.09,50.05,36.69,1.04.96,2.33,1.67,2.92,3.07l.12,100.84,1.53,2.96h102.47s1.15-1.84,1.15-1.84l.49-101.22c.32-1.1,2.65-3,3.65-3.83,13.58-11.33,31.03-20.33,44.54-32.11ZM173.03,65.79c0-20.26-16.42-36.68-36.68-36.68s-36.68,16.42-36.68,36.68,16.42,36.68,36.68,36.68,36.68-16.42,36.68-36.68Z"/>
  <path class="st0" d="M-1.81,0"/>
</svg>