<?xml version="1.0" encoding="UTF-8"?>
<svg id="_レイヤー_1" data-name="レイヤー_1" xmlns="http://www.w3.org/2000/svg" version="1.1" viewBox="0 0 3434 2288">
  <!-- Generator: Adobe Illustrator 29.4.0, SVG Export Plug-In . SVG Version: 2.1.0 Build 152)  -->
  <defs>
    <style>
      .st0 {
        fill: #92683c;
      }

      .st1 {
        fill: #edc785;
      }

      .st2 {
        fill: #d8ab6a;
      }

      .st3 {
        fill: #a47644;
      }

      .st4 {
        fill: #d9ac6c;
      }

      .st5 {
        fill: #dcaf6e;
      }

      .st6 {
        fill: #d4a565;
      }

      .st7 {
        fill: #9d7041;
      }

      .st8 {
        fill: #c09055;
      }

      .st9 {
        fill: #835c35;
      }

      .st10 {
        fill: #d9ab6b;
      }

      .st11 {
        fill: #855d35;
      }

      .st12 {
        fill: #bc9257;
      }

      .st13 {
        fill: #9c7142;
      }

      .st14 {
        fill: #996d3f;
      }

      .st15 {
        fill: #ecc684;
      }

      .st16 {
        fill: #845c34;
      }

      .st17 {
        fill: #4b3a27;
      }

      .st18 {
        fill: #805933;
      }

      .st19 {
        fill: #9c6f40;
      }

      .st20 {
        fill: #ebc482;
      }

      .st21 {
        fill: #9f7343;
      }

      .st22 {
        fill: #9a6f41;
      }

      .st23 {
        fill: #825b34;
      }

      .st24 {
        fill: #94693d;
      }

      .st25 {
        fill: #885f36;
      }

      .st26 {
        fill: #a47847;
      }

      .st27 {
        fill: #a57846;
      }

      .st28 {
        fill: #815a34;
      }

      .st29 {
        fill: #7c5732;
      }

      .st30 {
        fill: #87d3c8;
      }

      .st31 {
        fill: #976c3f;
      }

      .st32 {
        fill: #d6a868;
      }

      .st33 {
        fill: #3b2e21;
      }

      .st34 {
        fill: #be8f55;
      }

      .st35 {
        fill: #825a34;
      }

      .st36 {
        fill: #ecc584;
      }

      .st37 {
        fill: #9c7041;
      }
    </style>
  </defs>
  <path class="st34" d="M3434,0v2288H0V0h3434ZM1192,1538h1030v35c0,1.31,6.43,6.46,9.04,6.96,8.54,1.63,21.56-2.07,28.05-1.13,2.2.32,8.42,7.5,14.37,8.72,7.17,1.47,33.25.02,39.14-3.48,2.34-1.39,1.61-5.19,3.23-7.15,7.35-8.9,42.48,7.55,43.64-22.45-5.32-105.2-8.57-210.67-19.49-315.44-1.47-14.07-7.89-35.76-7.85-48.31.05-13.53,11.85-32.54,4.51-50.3-1-2.42-4.59-2.21-4.73-3.68-.42-4.22,3.49-15.96,4.06-21.76,5.56-56.81,9.74-114.96,12.11-171.89,2.65-63.43-1.96-127.54,10.09-190.1-.17-10.1-14.89-12.72-23.13-13.07-6.14-.27-13.5,2.27-17.61,1.7-9.95-1.38-14.61-5.64-28.07-3.15-5.72,1.06-4.53,5.44-8.32,5.74-8.17.65-16.29-4.58-24.75-5.04-5.71-.31-12.09,2.05-17.39,1.89-3.55-.1-7.09-3.63-13.89-3.18s-30.11,8.19-35.92,12.27h-956.24c-11.94-7.85-24.19-2.97-33.37-4.46-12.77-2.07-19.34-13.29-38.78-6.01-3.14,1.17-2.28,4.55-5.62,4.51-11.09-.14-20.51-8.4-36-6.06-3.81.58-7.06,3.77-10.28,3.94-4.31.23-6.47-3.47-9.92-3.97-8.72-1.27-41.73,2.3-48.01,7.8-5.91,5.17,1.27,19.78,2.52,27.71,7.34,46.78,3.12,90.62,4.51,137.49,1.79,60.32,6.41,121.69,12.09,181.91,2.26,23.94,5.31,29.64,1.89,53.9-3.01,21.33,5.55,34.85,6.25,50.12.81,17.69-8.27,57.09-10.13,77.99-7.12,79.73-10.84,160.04-13.93,240.07-.42,10.79-5.7,44.48-.24,52.07,6.73,9.35,23.73,4.76,30.93,6.71,1.99.54.9,6.17,5.28,9.08,3.23,2.14,22.88,6.67,27.25,6.9,16.7.86,20.42-10.67,29.87-11.82,14.08-1.71,25.34,10.67,40.67-1.17,11.59-8.95,4.76-26.13,4.14-38.86Z"/>
  <path class="st17" d="M1192,1538c.62,12.73,7.45,29.91-4.14,38.86-15.33,11.83-26.6-.54-40.67,1.17-9.45,1.15-13.17,12.67-29.87,11.82-4.38-.22-24.02-4.76-27.25-6.9-4.39-2.91-3.29-8.54-5.28-9.08-7.2-1.95-24.2,2.64-30.93-6.71-5.46-7.59-.18-41.28.24-52.07,3.08-80.03,6.81-160.34,13.93-240.07,1.87-20.9,10.94-60.31,10.13-77.99-.7-15.27-9.25-28.79-6.25-50.12,3.42-24.26.37-29.96-1.89-53.9-5.68-60.22-10.3-121.59-12.09-181.91-1.39-46.87,2.84-90.72-4.51-137.49-1.25-7.93-8.43-22.54-2.52-27.71,6.28-5.49,39.29-9.06,48.01-7.8,3.45.5,5.61,4.19,9.92,3.97,3.22-.17,6.47-3.36,10.28-3.94,15.49-2.34,24.91,5.93,36,6.06,3.33.04,2.48-3.34,5.62-4.51,19.44-7.27,26.01,3.94,38.78,6.01,9.18,1.49,21.43-3.39,33.37,4.46h956.24c5.81-4.07,29.3-11.82,35.92-12.26s10.34,3.08,13.89,3.18c5.3.15,11.68-2.2,17.39-1.89,8.45.45,16.58,5.69,24.75,5.04,3.79-.3,2.6-4.69,8.32-5.74,13.46-2.49,18.12,1.77,28.07,3.15,4.11.57,11.47-1.97,17.61-1.7,8.24.36,22.96,2.97,23.13,13.07-12.05,62.56-7.45,126.67-10.09,190.1-2.38,56.92-6.55,115.07-12.11,171.89-.57,5.79-4.48,17.54-4.06,21.76.14,1.47,3.73,1.26,4.73,3.68,7.34,17.77-4.46,36.78-4.51,50.3-.04,12.55,6.38,34.24,7.85,48.31,10.91,104.77,14.16,210.25,19.49,315.44-1.16,29.99-36.29,13.55-43.64,22.45-1.62,1.96-.9,5.76-3.23,7.15-5.89,3.5-31.97,4.95-39.14,3.48-5.95-1.22-12.16-8.4-14.37-8.72-6.49-.94-19.51,2.76-28.05,1.13-2.61-.5-9.04-5.65-9.04-6.96v-35h-1030ZM1104,1156c1.33.62,2.63,1.49,4,2,.58.22,1.39-.2,2,0,2.15.72,3.1,1.37,6,2,4.96,1.08,6.33,1.61,12,2,1.32.09,2.67-.02,4,0s2.67.04,4,0c4.56-.13,9.2.51,13.73-.28,39.69-131.18,51.64-269.17,71.56-404.48-.65-9.78-17.17-3.85-25.29-5.24-11.49-1.98-19.87-13.5-34-4-1.99,1.34-2.81,1.58-4,4-11.27-1.02-25.67-9.52-36.89-8.01-1.81.24-2.79,1.95-3.11,2.01-1.56.28-3.42,1.69-6,2-11.53,1.38-16.32-4.57-26.93-4.01-4.71.25-29.95,5.34-30.91,9.17-.26,1.02,4.52,16.37,5.2,20.47,8.11,48.58,3.14,96.47,4.55,145.45,1.62,56.22,5.66,119.93,12.11,175.89,1.1,9.57,4.1,40.33,7.04,46.96,2.54,5.73,15.17,11.37,20.94,14.06ZM2232,746c-14.57-1.99-10.11,3.49-19.42,5.58-3.88.87-16.01-.18-16.59.41-.67.67-.17,15.93.03,18.99,6.96,104.25,27.43,266.37,59.45,364.55,7.63,23.4,7.35,28.57,34.53,24.47.59-.09,1.44-1.89,2-2,3.72-.74,5.76-.62,10-2s5.8-1.68,10-4c6.39-3.52,12.36-6.69,14.68-14.32,2.86-9.4,4.19-29.87,5.3-40.7,4.9-47.63,8.03-99.98,10.1-147.9,2.83-65.43-2.15-131.55,10.11-196.1.05-4.6-13.25-6.52-17.48-6.8-6.84-.45-11.04,1.69-16.71,1.81-1.28.03-2.79.17-4,0-14.69-2.1-8.02-5.75-26,0-4.94,1.58-10.45,5.22-16,4-2.12-.47-6.91-5.02-13.18-5.81-9.82-1.24-16.49,1.22-26.82-.19ZM1228,766c-.26,1.31-1.85,2.92-2,4-.95,6.96-3.46,14.07-2,22h968c-.48-7.19,1.63-15.52-2-22-.76-1.36-2.98-2.59-4-4l2.85-10.04-960.54.31c-3.9,3.5-.21,9.23-.3,9.72ZM1716,796h-494c-.91,0-1.72,16.13-2,18h477l3,654h-494v-532c-5.22-.41-3.33-.3-3.94,3.01-3.67,20.01-8.84,46.05-10.14,65.91-8.8,133.54,4.71,277.57-2.01,412.18,3.77,22.72,1.51,45.94,2.1,68.9h524v-690ZM2194,796h-472v690h506v-18h-490c.55-3.7,1.99-7.05,2.11-10.9,6.53-209.67-5.23-420.46.04-630.25.99-6.15-6.84-11.32-3.16-16.84,1.39.9,5.08,3.98,6.02,3.98h451v-18ZM1690,818h-469c-3.06,0-3.53,9.14-3,12h463c1.03,0,12.13-8.25,9-12ZM2196,830c.53-2.86.06-12-3-12h-445c1.1,2.23,10.19,12,11,12h437ZM1694.88,826.01h-8.97s0,629.99,0,629.99h8.97s0-629.99,0-629.99ZM1754.13,826.98h-10.13v629.02h10.13v-629.02ZM1220,834c-5.01-.34-3.43-.49-3.95,3.01-2.37,15.89-3.95,31.97-6.15,47.89l.09,572.09c5.04,4.14,10.01-9.63,10.01-11.99v-611ZM1225.98,1448.08h456.11s.02-614.08.02-614.08h-456.11s-.02,614.08-.02,614.08ZM1758,910c-.39,95.29-.07,190.71,0,286,0,.67,0,1.33,0,2,.06,81.01.04,162.07-.1,243.1-.44,2.05,1.45,6.9,3.1,6.9h448l1-500c-2.61-25.26-4.81-50.82-8-76-1.54-12.16-4.73-24.55-4.12-36.88l-1.88-1.12-434.72.28c-1,.23-1.82.75-2.41,1.59-2.13,3.04-.83,64.18-.87,74.13ZM1750,1462h473c10.37,0,5.06-13.65,4.91-18.92-3.74-127.97,6.73-261.07.17-388.16-.26-5.02-6-60.87-9.08-60.94-7.27,10.58-.74,24.24-.81,35.02-.88,138.38-3.77,277.44-2.34,416.12,3.64,4.04,4.83,7.45,6.15,12.86l-12.89-6.09-453.09,1.12-6.01,8.99ZM1186,1450v-410l-25.6,109.57c8.34,21.37-3.83,43.52-4.49,61.48-.35,9.41,6.28,30.87,7.81,42.24,7.68,57.05,14.18,114.24,18.3,171.7l3.99,25.01ZM2232,1070v332l3.98-15.02c5.51-50.28,10.14-99.59,9.94-149.9-.23-58.04,5.01-103.3-9.92-160.08-.73-2.77.06-6.24-4-7ZM2327.41,1185.44c5.92-7.62,4.25-29.86,4.57-39.44-21.48,13.94-48.14,28.04-73.97,18.01-1.52,1.71,3.71,31.48,6.13,34.85,8.47,11.75,54.86-2.6,63.27-13.42ZM1155.98,1164.01c-25.44,11.57-57.17.95-77.96-16.01-4,36.02,6.66,50.49,41.49,57.49,37.28,7.49,38.05-8.98,36.48-41.48ZM2257.98,1157.96c.64-.88-5.97-7.59-7.96-7.96l2,87.99,7.65-33.05c-3.77-11.92-8.94-33.73-5.7-45.64.52-1.92,3.88-1.16,4-1.33ZM2302,1206c-1.39.38-7.32,1.91-8,2s-1.34-.07-2,0c-7,.7-14.86-.5-22,0-2.05.14-5.21-1.21-6.1,1.28-12.88,67.1-19.84,135.62-25.89,203.74-3.74,42.17-8.3,87.89-10.1,129.9-.2,4.58-1.25,27.21.53,28.62,2.19,1.73,11.28,2.6,14.55,2.61,5.21.02,9.22-2.06,11.01-2.15,13.9-.66,13.09,6.62,20.23,8.73s28,1.82,33.74-1.76c3.26-2.03,3.02-9.26,7.34-10.66,9.69-3.15,35.89,3.27,38.65-11.38l-4.05-55.85c-3.87-96.63-4.85-200.21-20.19-295.81-.45-2.82-.77-12.82-4.7-11.25-6.66,2.66-13.74,9.45-23.03,11.98ZM1162,1572c2.38.14,7.44,3.5,12.71,3.26,16.1-.74,13.76-13.57,13.37-26.35-1.76-57.04-10.15-124.37-16.08-181.9-3.08-29.82-6.12-60.04-10.27-89.73-1.91-13.62-5.57-51.58-10.12-61.87-1.68-3.81-3.7-3.8-7.59-3.41-5.97-.21-12.04.3-18,0-.66-.03-1.34.06-2,0-1.95-.16-4.14.28-6,0-.9-.13-6.6-1.61-8-2-1.48-.42-5.5-2.98-8-4-6.39-2.6-11.52-6.11-17.98-8-5.51,31.27-9.24,63.3-12.01,95.02-6.69,76.7-11.75,159.09-14.1,235.9-.24,7.81-1.17,23.22.14,30.03,2.29,11.98,21.39,7,28.64,9.36,3.01.98,4.41,6.94,8.54,9.46,6.36,3.89,26.52,5.95,33.4,3.85,4.96-1.51,4.37-8.51,10.36-9.64,5.16-.98,17.11-.32,23.01.01ZM1690,1462c-2.92-4.55-6.96-10-12.9-10.1l-452.21-1.12c-2.99.48-7.33,7.87-6.89,11.22h472ZM2226.08,1492h-1036.08v18h1036.08v-18ZM1189.98,1516v18.1h1034.12v-18.1h-1034.12Z"/>
  <path class="st29" d="M1716,796v690h-524c-.58-22.97,1.67-46.18-2.1-68.9,6.72-134.61-6.78-278.64,2.01-412.18,1.31-19.86,6.47-45.9,10.14-65.91.61-3.31-1.28-3.42,3.94-3.01v532h494l-3-654h-477c.28-1.87,1.09-18,2-18h494Z"/>
  <path class="st29" d="M2194,796v18h-451c-.93,0-4.62-3.08-6.02-3.98-3.68,5.52,4.15,10.69,3.16,16.84-5.26,209.78,6.49,420.58-.04,630.25-.12,3.85-1.55,7.2-2.11,10.9h490v18h-506v-690h472Z"/>
  <path class="st2" d="M2314,748c-.47,3.79.87,3.79,4,0,5.67-.12,9.87-2.26,16.71-1.81,4.23.28,17.53,2.2,17.48,6.8-12.26,64.54-7.28,130.66-10.11,196.1-2.07,47.92-5.2,100.27-10.1,147.9-1.11,10.83-2.44,31.3-5.3,40.7-2.32,7.62-8.3,10.79-14.68,14.32-3.85.57-7.18,1.9-10,4-4.24,1.38-6.28,1.26-10,2-1.34-.98-2.5-2.04-3.02-3.34-2.54-6.38-4.66-12.99-6.17-19.69-4.43-19.73-8.44-40.13-11.59-60.45-9.2-59.33-15.99-118.95-21.08-178.78l-2.15-1.74c-.69.7-1.41,1.33-2.24,1.67-8.22,3.37-17.97-55.32-18.88-62.49l3.12-5.18c-.93-23.23-3.41-46.68-7.44-70.37l1.44-3.63c-6.06-4.61,2.54-7.98,8-8,10.33,1.41,17-1.05,26.82.19,6.27.79,11.06,5.34,13.18,5.81,1.08,1.99,2.08,4.02,2.8,6.13s1.41,4.15,1.41,6.17c.03,27.65-.43,55.33-1.32,82.92-.01.79-1.3-13.1,3.44-14.58,1.73-27.12,3.59-54.21,5.6-81.3l4.07-3.35c17.98-5.75,11.31-2.1,26,0Z"/>
  <path class="st10" d="M1102,1206c2.11,3.14,4.77,4.48,8,4,1.4.39,7.1,1.87,8,2,2.42,1.93,4.42,1.93,6,0,.66.06,1.34-.03,2,0l7.29,2.08c13.35,116.42,22.27,233.68,26.77,351.77l1.94,2.16c5.31.64,5.08,2.48,0,4-5.9-.34-17.85-.99-23.01-.01-5.99,1.13-5.4,8.13-10.36,9.64-6.88,2.1-27.04.04-33.4-3.85-4.13-2.53-5.52-8.48-8.54-9.46-7.25-2.37-26.34,2.62-28.64-9.36-1.3-6.81-.37-22.22-.14-30.03,2.35-76.81,7.41-159.2,14.1-235.9,2.77-31.71,6.49-63.74,12.01-95.02,6.45,1.89,11.58,5.4,17.98,8Z"/>
  <path class="st5" d="M2302,1206c9.29-2.52,16.37-9.32,23.03-11.98,3.93-1.57,4.24,8.43,4.7,11.25,15.34,95.6,16.32,199.18,20.19,295.81l4.05,55.85c-2.76,14.65-28.96,8.23-38.65,11.38-4.31,1.4-4.08,8.63-7.34,10.66-5.74,3.58-26.87,3.78-33.74,1.76s-6.33-9.39-20.23-8.73c-5.76-2,.38-13.67,6-12l2.74-2.64c-.12-115.51,7.68-230.68,23.38-345.51-2.7-1.54-.74-2.83,5.88-3.85.66-.07,1.35.09,2,0,2.99.01,5.65-.65,8-2Z"/>
  <path class="st8" d="M2190,770c3.63,6.48,1.52,14.81,2,22h-968c-1.46-7.93,1.05-15.04,2-22l3.17-2h955.25l5.58,2Z"/>
  <rect class="st3" x="1190" y="1492" width="1036.08" height="18"/>
  <rect class="st9" x="1189.98" y="1516" width="1034.12" height="18.1"/>
  <path class="st32" d="M1112,748l2.99,7.58c3.78,80.91,3.23,164.54-7.76,239.26.53,51.45.28,102.83-.76,154.13l-2.47,7.02c-5.77-2.69-18.4-8.33-20.94-14.06-2.94-6.63-5.93-37.4-7.04-46.96-6.45-55.96-10.48-119.67-12.11-175.89-1.41-48.97,3.56-96.87-4.55-145.45-.69-4.1-5.46-19.45-5.2-20.47.96-3.83,26.19-8.92,30.91-9.17,10.61-.57,15.4,5.39,26.93,4.01Z"/>
  <path class="st36" d="M1196,752c8.12,1.39,24.63-4.54,25.29,5.24-19.92,135.31-31.87,273.3-71.56,404.48-4.52.79-9.17.15-13.73.28-1.14-2.84-1.81-6.17-2-10l-.94-7.34c9.68-34.99,17.68-70.48,23.77-106.21l-2.83,1.55-2,6c4.1,3.73,2.53,13.12-2,16-5.77,4.38-7.99-3.05-7.86-8.76.54-23.17,2.73-46.25,5.54-69.25,9.74-60.3,16.35-120.36,19.84-180.18,13.69-5.76,18.32,1.16,16.48,14.18l2.66-.59,7.34-63.41c-2.19-1.55-1.52-2.21,2-2Z"/>
  <path class="st20" d="M2232,746c-6.14,1.99-5.51,3.89-8,8l-1.21,7.42c3.85,22.1,6.25,44.3,7.21,66.58,2.94,15.91,6.61,37.12,10.64,52.36.92,3.46,4.01,11.69,7.36,13.64l2.74,8.22c5.41,88.97,18.5,174.9,39.26,257.78-27.18,4.1-26.9-1.07-34.53-24.47-32.02-98.17-52.49-260.3-59.45-364.55-.2-3.06-.7-18.32-.03-18.99.59-.59,12.71.46,16.59-.41,9.31-2.09,4.85-7.57,19.42-5.58Z"/>
  <path class="st11" d="M1750,1462l6.01-8.99,453.09-1.12,12.89,6.09c-1.33-5.41-2.51-8.82-6.15-12.86-1.43-138.68,1.46-277.74,2.34-416.12.07-10.79-6.46-24.45.81-35.02,3.09.07,8.82,55.92,9.08,60.94,6.55,127.09-3.91,260.2-.17,388.16.15,5.27,5.47,18.92-4.91,18.92h-473Z"/>
  <path class="st28" d="M1228,766c.1-.5-3.6-6.22.3-9.72l960.54-.31-2.85,10.04c-.21,1.12-.42,2-.63,2-314.78.66-641.09.66-955.96,0-.47,0-.94-.88-1.41-2Z"/>
  <path class="st1" d="M2270,1208l16.96,1.98c-16.57,112.89-24.56,226.61-23.97,341.15l-2.99,8.87-6,12c-1.79.08-5.8,2.17-11.01,2.15-3.27-.01-12.36-.88-14.55-2.61-1.78-1.41-.72-24.03-.53-28.62,1.8-42.02,6.36-87.73,10.1-129.9,6.04-68.12,13-136.64,25.89-203.74.88-2.49,4.05-1.14,6.1-1.28Z"/>
  <path class="st32" d="M1158,752c3.7,2.45.41,25.87-1.04,27.17-5.57-2.07-7.57,3.92-.97,4.43-6.96,119.11-18.32,243.14-41.15,363.68l-4.83,10.73c-.61-.2-1.42.22-2,0-.99-1.51-1.75-3.02-1.75-4.54-.07-55.68.34-112.92,2.7-169.13,8.77-77.52,10.73-158.64,5.91-234.78l3.15-3.55c.32-.06,1.31-1.77,3.11-2.01,11.22-1.51,25.62,6.99,36.89,8.01Z"/>
  <path class="st15" d="M1162,1572v-4l-2.27-8.36c-3.99-115.36-12.23-232.21-28.59-345.71l12.85-1.93c3.89-.39,5.91-.4,7.59,3.41,4.55,10.3,8.22,48.25,10.12,61.87,4.15,29.69,7.2,59.9,10.27,89.73,5.94,57.53,14.33,124.87,16.08,181.9.39,12.78,2.73,25.61-13.37,26.35-5.27.24-10.32-3.12-12.71-3.26Z"/>
  <path class="st5" d="M1196,752c-.68.64-1.44,1.24-2,2l-7.3,63.06-2.7.94c1.24-10.1-4.73-13.24-14-12.01-.47,8.96.6,18.13.08,27.09-4.27,73.54-22.21,147.66-23.94,220.18-.09,3.66.6,6.65,3.86,8.74,1.06,1.47,1.85,2.9,1.7,4.23-3.04,26.36-14.32,67.2-21.84,93.94-.2.73-.95,1.3-1.86,1.83-5.67-.39-7.04-.92-12-2l-.86-9.26c21.53-122.6,34.61-247.61,40.89-372.12l2.04-1.02c.18-10.19,1.48-20.06,3.92-29.6,14.13-9.5,22.51,2.02,34,4Z"/>
  <rect class="st25" x="1744" y="826.98" width="10.13" height="629.02"/>
  <path class="st6" d="M1186,1450l-3.99-25.01c-4.12-57.46-10.62-114.66-18.3-171.7-1.53-11.37-8.15-32.83-7.81-42.24.66-17.95,12.83-40.11,4.49-61.48l25.6-109.57v410Z"/>
  <path class="st9" d="M1220,834v611c0,2.36-4.97,16.14-10.01,11.99l-.09-572.09c2.19-15.92,3.78-32,6.15-47.89.52-3.5-1.06-3.35,3.95-3.01Z"/>
  <path class="st35" d="M1690,818c3.13,3.75-7.97,12-9,12h-463c-.53-2.86-.06-12,3-12h469Z"/>
  <path class="st28" d="M2196,830h-437c-.81,0-9.9-9.77-11-12h445c3.06,0,3.53,9.14,3,12Z"/>
  <rect class="st16" x="1685.91" y="826.01" width="8.97" height="629.99"/>
  <path class="st18" d="M1690,1462h-472c-.43-3.35,3.9-10.75,6.89-11.22l452.21,1.12c5.93.11,9.98,5.56,12.9,10.1Z"/>
  <path class="st33" d="M2186,766c1.02,1.41,3.24,2.64,4,4h-964c.15-1.08,1.74-2.69,2-4h958Z"/>
  <path class="st23" d="M2232,1070c4.06.76,3.27,4.23,4,7,14.93,56.78,9.69,102.05,9.92,160.08.2,50.31-4.42,99.61-9.94,149.9l-3.98,15.02v-332Z"/>
  <path class="st19" d="M1108,1158c-1.37-.51-2.67-1.38-4-2-.03-39.74-.69-79.44,2.08-119.08-5.91-73.15-6.2-146.69-12.09-219.91,4.72-4.91,5.69,8.72,5.99,12.02,4.34,48.71,4.12,97.23,6.02,145.99.09,2.43-1.5,7.44,1.98,6.97l6.1-94.91c-.32-46.42.9-92.82-2.08-139.08,2.58-.31,4.44-1.72,6-2-1.78,12.42,1.66,25.22,2.08,36.92,3.23,88.72-7.57,177.65-10.16,266-1.07,36.28,2.53,73.15-1.92,109.08Z"/>
  <path class="st4" d="M1155.98,1164.01c1.57,32.49.8,48.96-36.48,41.48-34.82-6.99-45.49-21.47-41.49-57.49,20.79,16.96,52.52,27.58,77.96,16.01Z"/>
  <path class="st5" d="M2327.41,1185.44c-8.41,10.82-54.79,25.17-63.27,13.42-2.43-3.36-7.65-33.14-6.13-34.85,25.83,10.03,52.49-4.06,73.97-18.01-.32,9.58,1.35,31.82-4.57,39.44Z"/>
  <path class="st37" d="M2288,748l-6.02,90.01-3.97-2.03c.45,14.97-.64,30.12-.1,45.1,2.26,62.89,7.31,127.2,12.1,189.9,1.45,18.99,6,37.87,5.96,57.02-4.81-2.39-5.32-12.08-5.96-17.02-10.26-79.56-15.39-173.45-18.11-253.89-1.18-34.93,1.05-70.15.08-105.08,5.55,1.22,11.06-2.42,16-4Z"/>
  <path class="st21" d="M1116,1160c-2.9-.63-3.85-1.28-6-2,17.26-85.98,27.68-173.62,35.98-261.02.5-5.29-.46-10.68.03-15.97,2.71-29.18,9.2-58.63,7.98-88.04-.1-2.43,1.51-7.44-1.98-6.97-.11,14.75-.33,30.42-1.94,45.07-.33,2.99-.44,6.17-4.06,6.92,3.52-24.74.51-50.2,4.05-74.93.33-2.3,1.05-3.7,2.94-5.06l2.97,19.98c.7-8.55-1.85-18.09,2.02-25.99,1.19-2.42,2.01-2.66,4-4,3.78,10.08-1.04,20.82-1.98,31.02-9.35,100.86-15.98,201.33-30.3,301.7-3.79,26.54-8.34,53.05-13.72,79.28Z"/>
  <path class="st14" d="M2292,1158c-.56.11-1.41,1.91-2,2-7.18-10.93-10.36-26.9-13.07-39.93-15.45-74.4-22.02-150.47-28.93-226.07-4.31-47.17-9.53-95.03-10.98-142.02,8.01.17,4.49,18.93,5,25,9.55,113.6,18.22,233.88,40.62,345.38,2.42,12.06,5.39,24.02,9.36,35.64Z"/>
  <path class="st37" d="M2292,1208c-4.33,1.85-3.37,3.3-4.07,6.88-13.89,70.39-16.83,157.91-20.01,230.03-1.54,34.91.82,73.96-1.9,108.09-.25,3.09-.77,12.1-6.01,6.99,4.3-116.54,4.32-233.89,24.03-348.97l-14.03-3.03c7.14-.5,15,.7,22,0Z"/>
  <path class="st31" d="M1124,1212l4.08,283.08c-5.65,22.83.79,49.41-1.98,72.02-.42,3.43-.55,6.89-5.08,6.92l-3.02-362.02c1.86.28,4.05-.16,6,0Z"/>
  <path class="st24" d="M1110,1210c-2.55,2.24-3.48,5.92-3.82,9.18-11.36,110.08-9.27,223.16-14.19,333.81l-5.99,4.99,16-351.98c2.5,1.02,6.52,3.58,8,4Z"/>
  <path class="st31" d="M1144,1212c-1.82.18-7.15,3.14-10.03,3.03,2.72,13.09,4.69,26.69,6.02,39.98,10.05,100.27,22.01,212.73,22.01,312.99-5.88,3.81-3.38,1.5-3.94-3.03-2.1-16.88-1.01-31.66-1.98-48.05-5.31-89.92-12.92-180.26-22.09-269.91-.9-8.84-2.02-19.67-3.8-28.24-.73-3.52-.21-5.04-4.19-6.77,5.96.3,12.03-.21,18,0Z"/>
  <path class="st7" d="M2302,1156l12.01-339.99c5.67-1.26,4.18,2.79,4.07,7.05-.36,12.98-3.47,28.89-4.06,41.96-4.19,92.92-.46,187.17-6.1,279.98-.23,3.74-1.66,8.18,4.08,7-4.2,2.32-5.7,2.6-10,4Z"/>
  <path class="st0" d="M2302,1206l3.98,347.99c-4.45-3.02-5.67-13.79-6.05-18.92-7.8-104.42,2.23-215.03-1.93-320.16-.15-3.86,2.06-8.02-4-6.91.68-.09,6.61-1.62,8-2Z"/>
  <path class="st21" d="M1134,1152c2.79,2.76,1.33,8.43-2,10-1.33-.02-2.68.09-4,0-1.01-16.43,7.63-33.52,11.45-49.55,3.87-16.18,7.73-34.11,10.55-50.45.9-5.21,1.43-10.73,2-16l2-6c.97-9.29,1.72-25.07,9.98-30-6.47,48.06-18.46,95.06-29.98,142Z"/>
  <path class="st12" d="M2257.98,1157.96c-.12.17-3.48-.59-4,1.33-3.24,11.91,1.92,33.73,5.7,45.64l-7.65,33.05-2-87.99c1.99.38,8.6,7.09,7.96,7.96Z"/>
  <path class="st27" d="M2318,748l-9.02,70.01c-5.08.99-3.14-8.38-2.96-10.99,1.36-19.6,5.34-39.56,7.98-59.02,1.21.17,2.72.03,4,0Z"/>
  <path class="st5" d="M1136,1162c-1.33.04-2.67.02-4,0-.95-3.89,1.23-6.87,2-10,4.97,1.62,4.78,6.15,2,10Z"/>
  <path class="st30" d="M1682.1,1156v14"/>
  <path class="st30" d="M1682.1,1148v6"/>
  <path class="st13" d="M2230,828c-3.27-17.74-9.76-48.13-10.08-65.13-.15-7.99,2.43-6.14,4.08-8.87,3.89,16.73,6.9,35.79,7.98,53.02.38,6.1,1.47,15.76-1.98,20.98Z"/>
  <path class="st22" d="M2323.98,1564c-7.25-6.15-3.43-21.52-4-30.98-3.87-64.26-8.16-129.44-10.06-193.94-.42-14.32.46-28.77.1-43.07,3.37,0,3.8,6.65,3.99,8.98,1.94,24.23.71,51.51,1.91,76.09,2.04,41.84,6.5,84,8.17,125.83.76,18.95-.71,38.13-.1,57.08Z"/>
  <path class="st26" d="M1194,754v24.99s-6.01,49.02-6.01,49.02c-5.96,1.82-4.29-6.21-3.99-10.01.79-9.99,6-58.56,10-64Z"/>
  <path class="st5" d="M1152,1046c.23-2.13-.72-5.07,2-6-.22,2.13.71,5.07-2,6Z"/>
</svg>